<?xml version="1.0" encoding="UTF-8"?>
<svg width="36px" height="45px" viewBox="0 0 36 45" version="1.1" xmlns="http://www.w3.org/2000/svg" xmlns:xlink="http://www.w3.org/1999/xlink">
    <!-- Generator: Sketch 51.3 (57544) - http://www.bohemiancoding.com/sketch -->
    <title>ascension_menu</title>
    <desc>Created with Sketch.</desc>
    <defs></defs>
    <g id="ascension_menu" stroke="none" stroke-width="1" fill="none" fill-rule="evenodd">
        <rect id="yellow" fill="#96172E" fill-rule="nonzero" x="0" y="22" width="36" height="4"></rect>
        <rect id="orange" fill="#96172E" fill-rule="nonzero" x="0" y="11" width="36" height="4"></rect>
        <rect id="red" fill="#96172E" fill-rule="nonzero" x="0" y="0" width="36" height="4"></rect>
        <path d="M3.7890625,35.46875 L6.25,42.0078125 L8.70507812,35.46875 L10.6210938,35.46875 L10.6210938,44 L9.14453125,44 L9.14453125,41.1875 L9.29101562,37.4257812 L6.77148438,44 L5.7109375,44 L3.19726562,37.4316406 L3.34375,41.1875 L3.34375,44 L1.8671875,44 L1.8671875,35.46875 L3.7890625,35.46875 Z M17.359375,40.1914062 L13.8554688,40.1914062 L13.8554688,42.8164062 L17.9511719,42.8164062 L17.9511719,44 L12.3730469,44 L12.3730469,35.46875 L17.9101562,35.46875 L17.9101562,36.6640625 L13.8554688,36.6640625 L13.8554688,39.0195312 L17.359375,39.0195312 L17.359375,40.1914062 Z M25.9257812,44 L24.4433594,44 L20.640625,37.9472656 L20.640625,44 L19.1582031,44 L19.1582031,35.46875 L20.640625,35.46875 L24.4550781,41.5449219 L24.4550781,35.46875 L25.9257812,35.46875 L25.9257812,44 Z M33.9179688,35.46875 L33.9179688,41.1699219 C33.9179688,42.0761764 33.6279326,42.7939427 33.0478516,43.3232422 C32.4677705,43.8525417 31.6953173,44.1171875 30.7304688,44.1171875 C29.7539014,44.1171875 28.9785185,43.8564479 28.4042969,43.3349609 C27.8300753,42.813474 27.5429688,42.0898484 27.5429688,41.1640625 L27.5429688,35.46875 L29.0195312,35.46875 L29.0195312,41.1757812 C29.0195312,41.7460966 29.1640611,42.1816391 29.453125,42.4824219 C29.7421889,42.7832046 30.1679659,42.9335938 30.7304688,42.9335938 C31.8710995,42.9335938 32.4414062,42.3320373 32.4414062,41.1289062 L32.4414062,35.46875 L33.9179688,35.46875 Z" id="Menu-Text" fill="#959399"></path>
    </g>
</svg>