<svg width="36" height="45" xmlns="http://www.w3.org/2000/svg">
  <g fill="none" fill-rule="evenodd">
    <path fill="#005cb9" fill-rule="nonzero" d="M0 22h36v4H0zM0 11h36v4H0zM0 0h36v4H0z"/>
    <path d="M3.8 35.5 6.3 42l2.4-6.5h2V44H9v-2.8l.2-3.8L6.8 44h-1l-2.6-6.6.1 3.8V44H2v-8.5h1.9Zm13.6 4.7h-3.5v2.6h4V44h-5.5v-8.5h5.5v1.2h-4V39h3.5v1.2Zm8.5 3.8h-1.5l-3.8-6v6h-1.4v-8.5h1.4l3.9 6v-6h1.4V44Zm8-8.5v5.7c0 .9-.3 1.6-.9 2.1-.5.6-1.3.8-2.3.8-1 0-1.7-.2-2.3-.8-.6-.5-.9-1.2-.9-2.1v-5.7H29v5.7c0 .5.2 1 .5 1.3.2.3.7.4 1.2.4 1.2 0 1.7-.6 1.7-1.8v-5.6H34Z" fill="#959399"/>
  </g>
</svg>